<?xml version="1.0" standalone="no"?>
<svg xmlns="http://www.w3.org/2000/svg" viewBox="0 0 99 65" width="99" height="65"><g fill="#1b6b34" color="#1b6b34" transform="translate(31.905 0) scale(0.546875) "><svg width="64.0" height="64.0" x="0.0" y="0.0" viewBox="0 0 64 64"><g><path d="M42,25H41a1,1,0,0,0-1,1v1h2Z"></path><rect x="44" y="25" width="2" height="2"></rect><rect x="36" y="33" width="2" height="2"></rect><rect x="48" y="37" width="2" height="2"></rect><rect x="40" y="29" width="2" height="2"></rect><path d="M42,34V33H40v2h1A1,1,0,0,0,42,34Z"></path><path d="M18,4H4v6H18ZM8,8H6V6H8Zm4,0H10V6h2Zm4,0H14V6h2Z"></path><rect x="48" y="33" width="2" height="2"></rect><circle cx="49" cy="47" r="1"></circle><rect x="32" y="33" width="2" height="2"></rect><circle cx="15" cy="28" r="1"></circle><path d="M50,26a1,1,0,0,0-1-1H48v2h2Z"></path><rect x="48" y="29" width="2" height="2"></rect><path d="M8,52H56V20H8Zm41-2a3,3,0,1,1,3-3A3,3,0,0,1,49,50ZM15,25a3,3,0,1,1-3,3A3,3,0,0,1,15,25ZM10,44a1,1,0,0,1,1-1H22V34a3,3,0,0,1,3-3H38V26a3,3,0,0,1,3-3h8a3,3,0,0,1,3,3V40a1,1,0,0,1-1,1H47a1,1,0,0,1-1-1V29H44v5a3,3,0,0,1-3,3H28v9a3,3,0,0,1-3,3H11a1,1,0,0,1-1-1Z"></path><path d="M4,60H60V12H4Zm50-2H52V56h2Zm4,0H56V56h2ZM6,18H58V54H6ZM6,56H22v2H6Z"></path><rect x="20" y="45" width="2" height="2"></rect><rect x="16" y="45" width="2" height="2"></rect><rect x="28" y="33" width="2" height="2"></rect><rect x="20" y="4" width="40" height="6"></rect><rect x="12" y="45" width="2" height="2"></rect><rect x="24" y="37" width="2" height="2"></rect><path d="M26,46V45H24v2h1A1,1,0,0,0,26,46Z"></path><rect x="24" y="41" width="2" height="2"></rect><path d="M26,33H25a1,1,0,0,0-1,1v1h2Z"></path></g></svg></g><line x1="32.95400000000001" y1="41" x2="65.85400000000001" y2="41" stroke="#60d167" stroke-linecap="round"></line><path fill="#60d167" fill-rule="nonzero" d="M4.70 17.21L4.70 17.21Q3.41 17.21 2.34 16.55Q1.27 15.89 0.64 14.80Q0 13.70 0 12.38L0 12.38L0 11.28Q0 11.16 0.12 11.16L0.12 11.16L2.81 11.16Q2.90 11.16 2.90 11.28L2.90 11.28L2.90 12.38Q2.90 13.18 3.43 13.74Q3.96 14.30 4.70 14.30L4.70 14.30Q5.45 14.30 5.98 13.73Q6.50 13.15 6.50 12.38L6.50 12.38Q6.50 11.50 5.35 10.85L5.35 10.85Q4.97 10.63 4.15 10.18Q3.34 9.72 2.62 9.31L2.62 9.31Q1.30 8.54 0.66 7.38Q0.02 6.22 0.02 4.75L0.02 4.75Q0.02 3.41 0.67 2.34Q1.32 1.27 2.39 0.65Q3.46 0.02 4.70 0.02L4.70 0.02Q5.98 0.02 7.04 0.66Q8.11 1.30 8.75 2.36Q9.38 3.43 9.38 4.75L9.38 4.75L9.38 6.72Q9.38 6.82 9.29 6.82L9.29 6.82L6.60 6.82Q6.50 6.82 6.50 6.72L6.50 6.72L6.48 4.75Q6.48 3.91 5.95 3.38Q5.42 2.86 4.70 2.86L4.70 2.86Q3.96 2.86 3.43 3.42Q2.90 3.98 2.90 4.75L2.90 4.75Q2.90 5.54 3.24 6.07Q3.58 6.60 4.46 7.08L4.46 7.08Q4.58 7.15 4.93 7.33Q5.28 7.51 5.69 7.74Q6.10 7.97 6.42 8.14Q6.74 8.30 6.82 8.35L6.82 8.35Q8.02 9.02 8.71 10.00Q9.41 10.97 9.41 12.38L9.41 12.38Q9.41 13.75 8.77 14.84Q8.14 15.94 7.07 16.57Q6 17.21 4.70 17.21ZM13.70 16.97L11.30 16.97Q11.11 16.97 11.11 16.80L11.11 16.80L11.09 0.46Q11.09 0.26 11.28 0.26L11.28 0.26L13.44 0.26L17.50 9.72L17.38 0.46Q17.38 0.26 17.59 0.26L17.59 0.26L19.97 0.26Q20.11 0.26 20.11 0.46L20.11 0.46L20.14 16.82Q20.14 16.97 20.02 16.97L20.02 16.97L17.90 16.97L13.75 8.14L13.92 16.78Q13.92 16.97 13.70 16.97L13.70 16.97ZM21.41 16.85L21.41 16.85L24.38 0.36Q24.41 0.26 24.50 0.26L24.50 0.26L27.98 0.26Q28.08 0.26 28.10 0.36L28.10 0.36L30.96 16.85Q30.98 16.97 30.86 16.97L30.86 16.97L28.20 16.97Q28.10 16.97 28.08 16.85L28.08 16.85L27.82 15.10L24.55 15.10L24.29 16.85Q24.26 16.97 24.17 16.97L24.17 16.97L21.50 16.97Q21.41 16.97 21.41 16.85ZM26.11 5.78L25.03 12.53L27.34 12.53L26.35 5.78L26.21 4.90L26.11 5.78ZM35.28 16.97L32.57 16.97Q32.47 16.97 32.47 16.85L32.47 16.85L32.52 0.38Q32.52 0.26 32.62 0.26L32.62 0.26L35.30 0.26Q35.40 0.26 35.40 0.38L35.40 0.38L35.40 6.07L39.17 0.36Q39.24 0.26 39.34 0.26L39.34 0.26L42.10 0.26Q42.19 0.26 42.14 0.36L42.14 0.36L37.99 6.98L42.65 16.87Q42.70 16.97 42.53 16.97L42.53 16.97L39.60 16.97Q39.48 16.97 39.46 16.87L39.46 16.87L36.22 9.82L35.38 11.14L35.38 16.85Q35.38 16.97 35.28 16.97L35.28 16.97ZM51.58 16.97L43.82 16.97Q43.73 16.97 43.73 16.85L43.73 16.85L43.75 0.36Q43.75 0.26 43.85 0.26L43.85 0.26L51.55 0.26Q51.65 0.26 51.65 0.38L51.65 0.38L51.65 3.07Q51.65 3.17 51.55 3.17L51.55 3.17L46.63 3.17L46.63 6.91L51.55 6.91Q51.65 6.91 51.65 7.01L51.65 7.01L51.67 9.72Q51.67 9.82 51.58 9.82L51.58 9.82L46.63 9.82L46.63 14.02L51.58 14.02Q51.67 14.02 51.67 14.14L51.67 14.14L51.67 16.87Q51.67 16.97 51.58 16.97L51.58 16.97ZM61.75 17.21L61.75 17.21Q60.46 17.21 59.40 16.56Q58.34 15.91 57.71 14.82Q57.07 13.73 57.07 12.38L57.07 12.38L57.07 4.78Q57.07 3.48 57.71 2.39Q58.34 1.30 59.41 0.65Q60.48 0 61.75 0L61.75 0Q63.07 0 64.14 0.64Q65.21 1.27 65.83 2.35Q66.46 3.43 66.46 4.78L66.46 4.78L66.46 5.88Q66.46 5.98 66.34 5.98L66.34 5.98L63.65 5.98Q63.55 5.98 63.55 5.88L63.55 5.88L63.55 4.97Q63.55 4.06 63.04 3.46Q62.52 2.86 61.75 2.86L61.75 2.86Q61.06 2.86 60.52 3.43Q59.98 4.01 59.98 4.78L59.98 4.78L59.98 12.38Q59.98 13.18 60.50 13.74Q61.03 14.30 61.75 14.30L61.75 14.30Q62.52 14.30 63.04 13.75Q63.55 13.20 63.55 12.38L63.55 12.38L63.55 11.21L61.87 11.21Q61.75 11.21 61.75 11.09L61.75 11.09L61.75 8.40Q61.75 8.28 61.87 8.28L61.87 8.28L66.36 8.28Q66.46 8.28 66.46 8.40L66.46 8.40L66.46 12.38Q66.46 13.73 65.82 14.82Q65.18 15.91 64.13 16.56Q63.07 17.21 61.75 17.21ZM66.91 16.85L66.91 16.85L69.89 0.36Q69.91 0.26 70.01 0.26L70.01 0.26L73.49 0.26Q73.58 0.26 73.61 0.36L73.61 0.36L76.46 16.85Q76.49 16.97 76.37 16.97L76.37 16.97L73.70 16.97Q73.61 16.97 73.58 16.85L73.58 16.85L73.32 15.10L70.06 15.10L69.79 16.85Q69.77 16.97 69.67 16.97L69.67 16.97L67.01 16.97Q66.91 16.97 66.91 16.85ZM71.62 5.78L70.54 12.53L72.84 12.53L71.86 5.78L71.71 4.90L71.62 5.78ZM80.78 16.97L78.07 16.97Q77.98 16.97 77.98 16.85L77.98 16.85L78.02 0.36Q78.02 0.26 78.12 0.26L78.12 0.26L81.05 0.26Q81.14 0.26 81.22 0.36L81.22 0.36L83.40 3.53L85.58 0.36Q85.66 0.26 85.75 0.26L85.75 0.26L88.70 0.26Q88.80 0.26 88.80 0.36L88.80 0.36L88.85 16.85Q88.85 16.97 88.75 16.97L88.75 16.97L86.04 16.97Q85.94 16.97 85.94 16.85L85.94 16.85L85.92 4.61L83.40 8.26L80.90 4.61L80.88 16.85Q80.88 16.97 80.78 16.97L80.78 16.97ZM98.71 16.97L90.96 16.97Q90.86 16.97 90.86 16.85L90.86 16.85L90.89 0.36Q90.89 0.26 90.98 0.26L90.98 0.26L98.69 0.26Q98.78 0.26 98.78 0.38L98.78 0.38L98.78 3.07Q98.78 3.17 98.69 3.17L98.69 3.17L93.77 3.17L93.77 6.91L98.69 6.91Q98.78 6.91 98.78 7.01L98.78 7.01L98.81 9.72Q98.81 9.82 98.71 9.82L98.71 9.82L93.77 9.82L93.77 14.02L98.71 14.02Q98.81 14.02 98.81 14.14L98.81 14.14L98.81 16.87Q98.81 16.97 98.71 16.97L98.71 16.97Z" transform="translate(0, 47)"></path></svg>